<?xml version="1.0" encoding="iso-8859-1"?>
<!-- Uploaded to: SVG Repo, www.svgrepo.com, Generator: SVG Repo Mixer Tools -->
<!DOCTYPE svg PUBLIC "-//W3C//DTD SVG 1.1//EN" "http://www.w3.org/Graphics/SVG/1.1/DTD/svg11.dtd">
<svg fill="#000000" version="1.1" id="Capa_1" xmlns="http://www.w3.org/2000/svg" xmlns:xlink="http://www.w3.org/1999/xlink" 
	 viewBox="0 0 60 60" xml:space="preserve">
<g>
	<rect x="2" y="8.5" width="56" height="6"/>
	<rect x="4" y="1.5" width="52" height="6"/>
	<path d="M31.18,43.036L58.622,15.5H1.376l27.471,27.562C29.482,43.652,30.52,43.65,31.18,43.036z"/>
	<path d="M32.57,44.474c-0.73,0.68-1.657,1.019-2.58,1.019c-0.914,0-1.823-0.332-2.533-0.993L0,16.953V58.5h60V16.951L32.57,44.474z
		 M54,53.5H41c-0.552,0-1-0.447-1-1s0.448-1,1-1h13c0.552,0,1,0.447,1,1S54.552,53.5,54,53.5z M54,49.5h-8c-0.552,0-1-0.447-1-1
		s0.448-1,1-1h8c0.552,0,1,0.447,1,1S54.552,49.5,54,49.5z M54,45.5h-8c-0.552,0-1-0.447-1-1s0.448-1,1-1h8c0.552,0,1,0.447,1,1
		S54.552,45.5,54,45.5z"/>
</g>
</svg>